<svg xmlns="http://www.w3.org/2000/svg" width="320" height="320" viewBox="0 0 320 320"><circle cx="0.1" cy="167.9" r="1.26" fill="#F4EDDC" opacity="0.60"/><circle cx="62.8" cy="312.3" r="1.01" fill="#EADFC4" opacity="0.55"/><circle cx="34.3" cy="261.0" r="1.44" fill="#EADFC4" opacity="0.55"/><circle cx="79.2" cy="60.2" r="0.81" fill="#FBF6EA" opacity="0.77"/><circle cx="171.0" cy="270.2" r="1.26" fill="#FBF6EA" opacity="0.67"/><circle cx="41.9" cy="276.0" r="0.96" fill="#EADFC4" opacity="0.63"/><circle cx="74.7" cy="3.9" r="0.48" fill="#ffffff" opacity="0.82"/><circle cx="251.5" cy="182.7" r="1.30" fill="#D8C49C" opacity="0.59"/><circle cx="120.2" cy="85.5" r="0.84" fill="#D8C49C" opacity="0.60"/><circle cx="16.9" cy="169.2" r="0.62" fill="#EADFC4" opacity="0.58"/><circle cx="61.7" cy="20.7" r="1.54" fill="#EADFC4" opacity="0.49"/><circle cx="317.9" cy="138.8" r="1.22" fill="#FBF6EA" opacity="0.67"/><circle cx="318.5" cy="60.8" r="1.20" fill="#F4EDDC" opacity="0.63"/><circle cx="239.0" cy="57.0" r="1.34" fill="#ffffff" opacity="0.49"/><circle cx="9.5" cy="42.9" r="1.15" fill="#F4EDDC" opacity="0.55"/><circle cx="162.2" cy="166.8" r="0.56" fill="#ffffff" opacity="0.59"/><circle cx="245.9" cy="84.9" r="1.18" fill="#ffffff" opacity="0.64"/><circle cx="141.1" cy="294.9" r="0.96" fill="#ffffff" opacity="0.58"/><circle cx="254.1" cy="277.0" r="1.27" fill="#EADFC4" opacity="0.78"/><circle cx="170.0" cy="98.4" r="0.83" fill="#F4EDDC" opacity="0.63"/><circle cx="181.4" cy="208.8" r="0.52" fill="#EADFC4" opacity="0.63"/><circle cx="3.0" cy="224.3" r="0.88" fill="#EADFC4" opacity="0.82"/><circle cx="40.0" cy="137.1" r="0.77" fill="#EADFC4" opacity="0.55"/><circle cx="117.0" cy="227.3" r="1.48" fill="#FBF6EA" opacity="0.64"/><circle cx="262.9" cy="170.5" r="0.59" fill="#EADFC4" opacity="0.50"/><circle cx="260.0" cy="125.3" r="0.53" fill="#EADFC4" opacity="0.58"/><circle cx="81.2" cy="123.7" r="0.80" fill="#D8C49C" opacity="0.53"/><circle cx="91.0" cy="316.5" r="0.67" fill="#D8C49C" opacity="0.66"/><circle cx="251.1" cy="40.7" r="0.84" fill="#F4EDDC" opacity="0.57"/><circle cx="53.8" cy="306.1" r="1.25" fill="#EADFC4" opacity="0.66"/><circle cx="156.6" cy="117.1" r="0.77" fill="#F4EDDC" opacity="0.61"/><circle cx="137.4" cy="103.0" r="0.84" fill="#FBF6EA" opacity="0.74"/><ellipse cx="131.0" cy="3.2" rx="1.36" ry="0.70" fill="#EADFC4" opacity="0.62" transform="rotate(35 131.0 3.2)"/><ellipse cx="308.8" cy="254.2" rx="1.20" ry="0.68" fill="#EADFC4" opacity="0.59" transform="rotate(36 308.8 254.2)"/><ellipse cx="315.1" cy="110.2" rx="1.72" ry="0.77" fill="#FBF6EA" opacity="0.55" transform="rotate(161 315.1 110.2)"/><ellipse cx="318.9" cy="312.2" rx="1.07" ry="0.60" fill="#F4EDDC" opacity="0.40" transform="rotate(7 318.9 312.2)"/><ellipse cx="161.7" cy="50.0" rx="1.93" ry="0.54" fill="#F4EDDC" opacity="0.57" transform="rotate(39 161.7 50.0)"/><ellipse cx="132.6" cy="306.4" rx="1.65" ry="0.65" fill="#EADFC4" opacity="0.50" transform="rotate(115 132.6 306.4)"/></svg>