<svg xmlns="http://www.w3.org/2000/svg" width="420" height="420" viewBox="0 0 420 420"><circle cx="0.1" cy="220.3" r="0.98" fill="#FBF6EA" opacity="0.26"/><circle cx="82.4" cy="409.9" r="0.79" fill="#F4EDDC" opacity="0.24"/><circle cx="45.0" cy="342.5" r="1.12" fill="#F4EDDC" opacity="0.23"/><circle cx="103.9" cy="79.1" r="0.62" fill="#FBF6EA" opacity="0.36"/><circle cx="224.5" cy="354.7" r="0.98" fill="#FBF6EA" opacity="0.30"/><circle cx="55.0" cy="362.3" r="0.74" fill="#F4EDDC" opacity="0.28"/><circle cx="98.1" cy="5.2" r="0.37" fill="#EADFC4" opacity="0.38"/><circle cx="330.1" cy="239.7" r="1.00" fill="#F4EDDC" opacity="0.26"/><circle cx="157.8" cy="112.2" r="0.65" fill="#F4EDDC" opacity="0.26"/><circle cx="22.2" cy="222.0" r="0.48" fill="#F4EDDC" opacity="0.25"/><circle cx="81.0" cy="27.2" r="1.19" fill="#F4EDDC" opacity="0.20"/><circle cx="417.2" cy="182.2" r="0.95" fill="#FBF6EA" opacity="0.30"/><circle cx="418.1" cy="79.8" r="0.93" fill="#F4EDDC" opacity="0.28"/><circle cx="313.7" cy="74.8" r="1.04" fill="#EADFC4" opacity="0.20"/><ellipse cx="12.5" cy="56.3" rx="1.34" ry="0.45" fill="#F4EDDC" opacity="0.23" transform="rotate(45 12.5 56.3)"/><ellipse cx="43.5" cy="413.1" rx="1.05" ry="0.61" fill="#F4EDDC" opacity="0.30" transform="rotate(48 43.5 413.1)"/><ellipse cx="195.9" cy="185.1" rx="1.62" ry="0.49" fill="#FBF6EA" opacity="0.28" transform="rotate(176 195.9 185.1)"/></svg>